<svg width="88" height="88" viewBox="0 0 88 88" fill="none" xmlns="http://www.w3.org/2000/svg">
<path d="M0.25 12.75C0.25 9.43479 1.56696 6.25537 3.91117 3.91117C6.25537 1.56696 9.43479 0.25 12.75 0.25H75.25C78.5652 0.25 81.7446 1.56696 84.0888 3.91117C86.433 6.25537 87.75 9.43479 87.75 12.75V75.25C87.75 78.5652 86.433 81.7446 84.0888 84.0888C81.7446 86.433 78.5652 87.75 75.25 87.75H12.75C9.43479 87.75 6.25537 86.433 3.91117 84.0888C1.56696 81.7446 0.25 78.5652 0.25 75.25V12.75Z" fill="#5B099B"/>
<path d="M0.25 12.75C0.25 9.43479 1.56696 6.25537 3.91117 3.91117C6.25537 1.56696 9.43479 0.25 12.75 0.25H75.25C78.5652 0.25 81.7446 1.56696 84.0888 3.91117C86.433 6.25537 87.75 9.43479 87.75 12.75V75.25C87.75 78.5652 86.433 81.7446 84.0888 84.0888C81.7446 86.433 78.5652 87.75 75.25 87.75H12.75C9.43479 87.75 6.25537 86.433 3.91117 84.0888C1.56696 81.7446 0.25 78.5652 0.25 75.25V12.75Z" fill="url(#paint0_radial_8_2140)"/>
<path d="M0.25 12.75C0.25 9.43479 1.56696 6.25537 3.91117 3.91117C6.25537 1.56696 9.43479 0.25 12.75 0.25H75.25C78.5652 0.25 81.7446 1.56696 84.0888 3.91117C86.433 6.25537 87.75 9.43479 87.75 12.75V75.25C87.75 78.5652 86.433 81.7446 84.0888 84.0888C81.7446 86.433 78.5652 87.75 75.25 87.75H12.75C9.43479 87.75 6.25537 86.433 3.91117 84.0888C1.56696 81.7446 0.25 78.5652 0.25 75.25V12.75Z" fill="url(#paint1_radial_8_2140)"/>
<path d="M0.25 12.75C0.25 9.43479 1.56696 6.25537 3.91117 3.91117C6.25537 1.56696 9.43479 0.25 12.75 0.25H75.25C78.5652 0.25 81.7446 1.56696 84.0888 3.91117C86.433 6.25537 87.75 9.43479 87.75 12.75V75.25C87.75 78.5652 86.433 81.7446 84.0888 84.0888C81.7446 86.433 78.5652 87.75 75.25 87.75H12.75C9.43479 87.75 6.25537 86.433 3.91117 84.0888C1.56696 81.7446 0.25 78.5652 0.25 75.25V12.75Z" fill="url(#paint2_radial_8_2140)" fill-opacity="0.3"/>
<path d="M0.25 12.75C0.25 9.43479 1.56696 6.25537 3.91117 3.91117C6.25537 1.56696 9.43479 0.25 12.75 0.25H75.25C78.5652 0.25 81.7446 1.56696 84.0888 3.91117C86.433 6.25537 87.75 9.43479 87.75 12.75V75.25C87.75 78.5652 86.433 81.7446 84.0888 84.0888C81.7446 86.433 78.5652 87.75 75.25 87.75H12.75C9.43479 87.75 6.25537 86.433 3.91117 84.0888C1.56696 81.7446 0.25 78.5652 0.25 75.25V12.75Z" fill="url(#paint3_radial_8_2140)" fill-opacity="0.1"/>
<path d="M0.25 12.75C0.25 9.43479 1.56696 6.25537 3.91117 3.91117C6.25537 1.56696 9.43479 0.25 12.75 0.25H75.25C78.5652 0.25 81.7446 1.56696 84.0888 3.91117C86.433 6.25537 87.75 9.43479 87.75 12.75V75.25C87.75 78.5652 86.433 81.7446 84.0888 84.0888C81.7446 86.433 78.5652 87.75 75.25 87.75H12.75C9.43479 87.75 6.25537 86.433 3.91117 84.0888C1.56696 81.7446 0.25 78.5652 0.25 75.25V12.75Z" fill="url(#paint4_radial_8_2140)" fill-opacity="0.2"/>
<path d="M53.375 23.6875C53.375 25.1238 53.0921 26.5461 52.5424 27.8731C51.9928 29.2001 51.1871 30.4058 50.1715 31.4215C49.1558 32.4371 47.9501 33.2428 46.6231 33.7924C45.2961 34.3421 43.8738 34.625 42.4375 34.625C41.0012 34.625 39.5789 34.3421 38.2519 33.7924C36.9249 33.2428 35.7192 32.4371 34.7035 31.4215C33.6879 30.4058 32.8822 29.2001 32.3326 27.8731C31.7829 26.5461 31.5 25.1238 31.5 23.6875C31.5 20.7867 32.6523 18.0047 34.7035 15.9535C36.7547 13.9023 39.5367 12.75 42.4375 12.75C45.3383 12.75 48.1203 13.9023 50.1715 15.9535C52.2227 18.0047 53.375 20.7867 53.375 23.6875ZM39.3125 37.75C37.2405 37.75 35.2533 38.5731 33.7882 40.0382C32.3231 41.5034 31.5 43.4905 31.5 45.5625V61.1875C31.5 62.2135 31.7021 63.2294 32.0947 64.1772C32.4873 65.1251 33.0628 65.9863 33.7882 66.7118C34.5137 67.4372 35.3749 68.0127 36.3228 68.4053C37.2706 68.7979 38.2865 69 39.3125 69H64.3125C65.3384 69 66.3544 68.7979 67.3022 68.4053C68.2501 68.0127 69.1113 67.4372 69.8368 66.7118C70.5622 65.9863 71.1377 65.1251 71.5303 64.1772C71.9229 63.2294 72.125 62.2135 72.125 61.1875V45.5625C72.125 43.4905 71.3019 41.5034 69.8368 40.0382C68.3716 38.5731 66.3845 37.75 64.3125 37.75H39.3125ZM16.0219 40.4469V66.4656C16.0223 66.9289 16.16 67.3816 16.4175 67.7667C16.6751 68.1517 17.041 68.4518 17.469 68.629C17.897 68.8062 18.3679 68.8527 18.8223 68.7624C19.2767 68.6721 19.6941 68.4492 20.0219 68.1219L27.7375 60.4094C28.1772 59.9703 28.4244 59.3745 28.425 58.7531V48.1C28.4247 47.7908 28.3633 47.4848 28.2442 47.1994C28.1252 46.9141 27.9508 46.6552 27.7312 46.4375L20.0156 38.7812C19.687 38.4555 19.2692 38.2343 18.815 38.1455C18.3608 38.0568 17.8906 38.1045 17.4635 38.2826C17.0363 38.4608 16.6715 38.7613 16.415 39.1465C16.1584 39.5316 16.0217 39.9841 16.0219 40.4469ZM64.3125 34.625C66.3845 34.625 68.3716 33.8019 69.8368 32.3368C71.3019 30.8716 72.125 28.8845 72.125 26.8125C72.125 24.7405 71.3019 22.7534 69.8368 21.2882C68.3716 19.8231 66.3845 19 64.3125 19C62.2405 19 60.2533 19.8231 58.7882 21.2882C57.3231 22.7534 56.5 24.7405 56.5 26.8125C56.5 28.8845 57.3231 30.8716 58.7882 32.3368C60.2533 33.8019 62.2405 34.625 64.3125 34.625Z" fill="white"/>
<defs>
<radialGradient id="paint0_radial_8_2140" cx="0" cy="0" r="1" gradientUnits="userSpaceOnUse" gradientTransform="translate(38.5312 -27.0937) rotate(84.476) scale(129.115 79.176)">
<stop offset="0.241623" stop-color="#AA229C" stop-opacity="0.92"/>
<stop offset="0.848853" stop-color="#A25FF8" stop-opacity="0.89"/>
</radialGradient>
<radialGradient id="paint1_radial_8_2140" cx="0" cy="0" r="1" gradientUnits="userSpaceOnUse" gradientTransform="translate(31.0739 0.249997) rotate(81.2602) scale(85.0698 68.249)">
<stop stop-color="#C243FE"/>
<stop offset="1" stop-color="#B62FF6" stop-opacity="0.12"/>
</radialGradient>
<radialGradient id="paint2_radial_8_2140" cx="0" cy="0" r="1" gradientUnits="userSpaceOnUse" gradientTransform="translate(27.5938 67.2422) rotate(-108.343) scale(48.9727 50.1953)">
<stop stop-color="white" stop-opacity="0.73"/>
<stop offset="1" stop-color="white" stop-opacity="0.12"/>
</radialGradient>
<radialGradient id="paint3_radial_8_2140" cx="0" cy="0" r="1" gradientUnits="userSpaceOnUse" gradientTransform="translate(44 27.5938) rotate(90) scale(60.1563 58.1676)">
<stop stop-color="white"/>
<stop offset="1" stop-color="white" stop-opacity="0"/>
</radialGradient>
<radialGradient id="paint4_radial_8_2140" cx="0" cy="0" r="1" gradientUnits="userSpaceOnUse" gradientTransform="translate(79.2983 59.0391) rotate(140.876) scale(45.5004 225.206)">
<stop stop-color="white"/>
<stop offset="1" stop-color="white" stop-opacity="0"/>
</radialGradient>
</defs>
</svg>
