<svg width="100" height="100" viewBox="0 0 100 100" fill="none" xmlns="http://www.w3.org/2000/svg">
<path d="M6.25 18.75C6.25 15.4348 7.56696 12.2554 9.91117 9.91117C12.2554 7.56696 15.4348 6.25 18.75 6.25H81.25C84.5652 6.25 87.7446 7.56696 90.0888 9.91117C92.433 12.2554 93.75 15.4348 93.75 18.75V81.25C93.75 84.5652 92.433 87.7446 90.0888 90.0888C87.7446 92.433 84.5652 93.75 81.25 93.75H18.75C15.4348 93.75 12.2554 92.433 9.91117 90.0888C7.56696 87.7446 6.25 84.5652 6.25 81.25V18.75Z" fill="#5B099B"/>
<path d="M6.25 18.75C6.25 15.4348 7.56696 12.2554 9.91117 9.91117C12.2554 7.56696 15.4348 6.25 18.75 6.25H81.25C84.5652 6.25 87.7446 7.56696 90.0888 9.91117C92.433 12.2554 93.75 15.4348 93.75 18.75V81.25C93.75 84.5652 92.433 87.7446 90.0888 90.0888C87.7446 92.433 84.5652 93.75 81.25 93.75H18.75C15.4348 93.75 12.2554 92.433 9.91117 90.0888C7.56696 87.7446 6.25 84.5652 6.25 81.25V18.75Z" fill="url(#paint0_radial_8_2139)"/>
<path d="M6.25 18.75C6.25 15.4348 7.56696 12.2554 9.91117 9.91117C12.2554 7.56696 15.4348 6.25 18.75 6.25H81.25C84.5652 6.25 87.7446 7.56696 90.0888 9.91117C92.433 12.2554 93.75 15.4348 93.75 18.75V81.25C93.75 84.5652 92.433 87.7446 90.0888 90.0888C87.7446 92.433 84.5652 93.75 81.25 93.75H18.75C15.4348 93.75 12.2554 92.433 9.91117 90.0888C7.56696 87.7446 6.25 84.5652 6.25 81.25V18.75Z" fill="url(#paint1_radial_8_2139)"/>
<path d="M6.25 18.75C6.25 15.4348 7.56696 12.2554 9.91117 9.91117C12.2554 7.56696 15.4348 6.25 18.75 6.25H81.25C84.5652 6.25 87.7446 7.56696 90.0888 9.91117C92.433 12.2554 93.75 15.4348 93.75 18.75V81.25C93.75 84.5652 92.433 87.7446 90.0888 90.0888C87.7446 92.433 84.5652 93.75 81.25 93.75H18.75C15.4348 93.75 12.2554 92.433 9.91117 90.0888C7.56696 87.7446 6.25 84.5652 6.25 81.25V18.75Z" fill="url(#paint2_radial_8_2139)" fill-opacity="0.3"/>
<path d="M6.25 18.75C6.25 15.4348 7.56696 12.2554 9.91117 9.91117C12.2554 7.56696 15.4348 6.25 18.75 6.25H81.25C84.5652 6.25 87.7446 7.56696 90.0888 9.91117C92.433 12.2554 93.75 15.4348 93.75 18.75V81.25C93.75 84.5652 92.433 87.7446 90.0888 90.0888C87.7446 92.433 84.5652 93.75 81.25 93.75H18.75C15.4348 93.75 12.2554 92.433 9.91117 90.0888C7.56696 87.7446 6.25 84.5652 6.25 81.25V18.75Z" fill="url(#paint3_radial_8_2139)" fill-opacity="0.1"/>
<path d="M6.25 18.75C6.25 15.4348 7.56696 12.2554 9.91117 9.91117C12.2554 7.56696 15.4348 6.25 18.75 6.25H81.25C84.5652 6.25 87.7446 7.56696 90.0888 9.91117C92.433 12.2554 93.75 15.4348 93.75 18.75V81.25C93.75 84.5652 92.433 87.7446 90.0888 90.0888C87.7446 92.433 84.5652 93.75 81.25 93.75H18.75C15.4348 93.75 12.2554 92.433 9.91117 90.0888C7.56696 87.7446 6.25 84.5652 6.25 81.25V18.75Z" fill="url(#paint4_radial_8_2139)" fill-opacity="0.2"/>
<path d="M59.375 29.6875C59.375 31.1238 59.0921 32.5461 58.5424 33.8731C57.9928 35.2001 57.1871 36.4058 56.1715 37.4215C55.1558 38.4371 53.9501 39.2428 52.6231 39.7924C51.2961 40.3421 49.8738 40.625 48.4375 40.625C47.0012 40.625 45.5789 40.3421 44.2519 39.7924C42.9249 39.2428 41.7192 38.4371 40.7035 37.4215C39.6879 36.4058 38.8822 35.2001 38.3326 33.8731C37.7829 32.5461 37.5 31.1238 37.5 29.6875C37.5 26.7867 38.6523 24.0047 40.7035 21.9535C42.7547 19.9023 45.5367 18.75 48.4375 18.75C51.3383 18.75 54.1203 19.9023 56.1715 21.9535C58.2227 24.0047 59.375 26.7867 59.375 29.6875ZM45.3125 43.75C43.2405 43.75 41.2533 44.5731 39.7882 46.0382C38.3231 47.5034 37.5 49.4905 37.5 51.5625V67.1875C37.5 68.2135 37.7021 69.2294 38.0947 70.1772C38.4873 71.1251 39.0628 71.9863 39.7882 72.7118C40.5137 73.4372 41.3749 74.0127 42.3228 74.4053C43.2706 74.7979 44.2865 75 45.3125 75H70.3125C71.3384 75 72.3544 74.7979 73.3022 74.4053C74.2501 74.0127 75.1113 73.4372 75.8368 72.7118C76.5622 71.9863 77.1377 71.1251 77.5303 70.1772C77.9229 69.2294 78.125 68.2135 78.125 67.1875V51.5625C78.125 49.4905 77.3019 47.5034 75.8368 46.0382C74.3716 44.5731 72.3845 43.75 70.3125 43.75H45.3125ZM22.0219 46.4469V72.4656C22.0223 72.9289 22.16 73.3816 22.4175 73.7667C22.6751 74.1517 23.041 74.4518 23.469 74.629C23.897 74.8062 24.3679 74.8527 24.8223 74.7624C25.2767 74.6721 25.6941 74.4492 26.0219 74.1219L33.7375 66.4094C34.1772 65.9703 34.4244 65.3745 34.425 64.7531V54.1C34.4247 53.7908 34.3633 53.4848 34.2442 53.1994C34.1252 52.9141 33.9508 52.6552 33.7312 52.4375L26.0156 44.7812C25.687 44.4555 25.2692 44.2343 24.815 44.1455C24.3608 44.0568 23.8906 44.1045 23.4635 44.2826C23.0363 44.4608 22.6715 44.7613 22.415 45.1465C22.1584 45.5316 22.0217 45.9841 22.0219 46.4469ZM70.3125 40.625C72.3845 40.625 74.3716 39.8019 75.8368 38.3368C77.3019 36.8716 78.125 34.8845 78.125 32.8125C78.125 30.7405 77.3019 28.7534 75.8368 27.2882C74.3716 25.8231 72.3845 25 70.3125 25C68.2405 25 66.2533 25.8231 64.7882 27.2882C63.3231 28.7534 62.5 30.7405 62.5 32.8125C62.5 34.8845 63.3231 36.8716 64.7882 38.3368C66.2533 39.8019 68.2405 40.625 70.3125 40.625Z" fill="white"/>
<defs>
<radialGradient id="paint0_radial_8_2139" cx="0" cy="0" r="1" gradientUnits="userSpaceOnUse" gradientTransform="translate(44.5312 -21.0937) rotate(84.476) scale(129.115 79.176)">
<stop offset="0.241623" stop-color="#AA229C" stop-opacity="0.92"/>
<stop offset="0.848853" stop-color="#A25FF8" stop-opacity="0.89"/>
</radialGradient>
<radialGradient id="paint1_radial_8_2139" cx="0" cy="0" r="1" gradientUnits="userSpaceOnUse" gradientTransform="translate(37.0739 6.25) rotate(81.2602) scale(85.0698 68.249)">
<stop stop-color="#C243FE"/>
<stop offset="1" stop-color="#B62FF6" stop-opacity="0.12"/>
</radialGradient>
<radialGradient id="paint2_radial_8_2139" cx="0" cy="0" r="1" gradientUnits="userSpaceOnUse" gradientTransform="translate(33.5938 73.2422) rotate(-108.343) scale(48.9727 50.1953)">
<stop stop-color="white" stop-opacity="0.73"/>
<stop offset="1" stop-color="white" stop-opacity="0.12"/>
</radialGradient>
<radialGradient id="paint3_radial_8_2139" cx="0" cy="0" r="1" gradientUnits="userSpaceOnUse" gradientTransform="translate(50 33.5938) rotate(90) scale(60.1563 58.1676)">
<stop stop-color="white"/>
<stop offset="1" stop-color="white" stop-opacity="0"/>
</radialGradient>
<radialGradient id="paint4_radial_8_2139" cx="0" cy="0" r="1" gradientUnits="userSpaceOnUse" gradientTransform="translate(85.2983 65.0391) rotate(140.876) scale(45.5004 225.206)">
<stop stop-color="white"/>
<stop offset="1" stop-color="white" stop-opacity="0"/>
</radialGradient>
</defs>
</svg>
